# AST/ASF file generated using VICON BodyLanguage
# -----------------------------------------------
:version 1.10
:name VICON
:units
  mass 1.0
  length 0.45
  angle deg
:documentation
   .ast/.asf automatically generated from VICON data using
   VICON BodyBuilder and BodyLanguage model FoxedUp or BRILLIANT.MOD
:root
   order TX TY TZ RX RY RZ
   axis XYZ
   position 0 0 0  
   orientation 0 0 0 
:bonedata
  begin
     id 1 
     name lhipjoint
     direction 0.621036 -0.695554 0.361275 
     length 2.46325 
     axis 0 0 0  XYZ
  end
  begin
     id 2 
     name lfemur
     direction 0.34202 -0.939693 0  
     length 6.54784  
     axis 0 0 20  XYZ
    dof rx ry rz
    limits (-160.0 20.0)
           (-70.0 70.0)
           (-60.0 70.0)
  end
  begin
     id 3 
     name ltibia
     direction 0.34202 -0.939693 0   
     length 7.84737   
     axis 0 0 20   XYZ
    dof rx
    limits (-10.0 170.0)
  end
  begin
     id 4 
     name lfoot
     direction 0.0790693 -0.217241 0.97291   
     length 2.59747   
     axis -90 7.62852e-016 20   XYZ
    dof rx rz
    limits (-45.0 90.0)
           (-70.0 20.0)
  end
  begin
     id 5 
     name ltoes
     direction 1.53572e-011 -4.21898e-011 1   
     length 1.29919   
     axis -90 7.62852e-016 20   XYZ
    dof rx
    limits (-90.0 20.0)
  end
  begin
     id 6 
     name rhipjoint
     direction -0.602353 -0.708375 0.367935   
     length 2.41867  
     axis 0 0 0  XYZ 
  end
  begin
     id 7 
     name rfemur
     direction -0.34202 -0.939693 0   
     length 6.92065   
     axis 0 0 -20   XYZ
    dof rx ry rz
    limits (-160.0 20.0)
           (-70.0 70.0)
           (-70.0 60.0)
  end
  begin
     id 8 
     name rtibia
     direction -0.34202 -0.939693 0   
     length 7.88883   
     axis 0 0 -20   XYZ
    dof rx
    limits (-10.0 170.0)
 end
 begin
     id 9 
     name rfoot
     direction -0.0768692 -0.211196 0.974416   
     length 2.43714  
     axis -90 -7.62852e-016 -20   XYZ
    dof rx rz
    limits (-45.0 90.0)
           (-20.0 70.0)
  end
  begin
     id 10 
     name rtoes
     direction -1.53575e-011 -4.21933e-011 1   
     length 1.22113   
     axis -90 -7.62852e-016 -20   XYZ
    dof rx
    limits (-90.0 20.0)
  end
  begin
     id 11 
     name lowerback
     direction 0.0197937 0.98943 -0.143655   
     length 2.16931   
     axis 0 0 0   XYZ
    dof rx ry rz
    limits (-20.0 45.0)
           (-30.0 30.0)
           (-30.0 30.0)
  end
  begin
     id 12 
     name upperback
     direction -0.00183968 0.999975 0.00684288   
     length 2.17221   
     axis 0 0 0   XYZ
    dof rx ry rz
    limits (-20.0 45.0)
           (-30.0 30.0)
           (-30.0 30.0)
  end
  begin
     id 13 
     name thorax
     direction -0.00950244 0.997208 0.0740685   
     length 2.22549   
     axis 0 0 0   XYZ
    dof rx ry rz
    limits (-20.0 45.0)
           (-30.0 30.0)
           (-30.0 30.0)
  end
  begin
     id 14 
     name lowerneck
     direction 0.0218238 0.996215 0.0841425   
     length 1.77269   
     axis 0 0 0   XYZ
    dof rx ry rz
    limits (-20.0 45.0)
           (-30.0 30.0)
           (-30.0 30.0)
  end
  begin
     id 15 
     name upperneck
     direction -0.00430652 0.994214 -0.107332   
     length 1.76534   
     axis 0 0 0   XYZ
    dof rx ry rz
    limits (-20.0 45.0)
           (-30.0 30.0)
           (-30.0 30.0)
  end
  begin
     id 16
     name head
     direction -0.00328946 0.998959 -0.0454998  
     length 1.82634  
     axis 0 0 0   XYZ
    dof rx ry rz
    limits (-20.0 45.0)
           (-30.0 30.0)
           (-30.0 30.0)
  end
  begin
     id 17 
     name lclavicle
     direction 0.970962 0.239191 0.00450212  
     length 3.84872  
     axis 0 0 0   XYZ
    dof ry rz
    limits (-20.0 10.0)
           (0.0 20.0)
  end
  begin
     id 18 
     name lhumerus
     direction 1 -4.48966e-011 5.74696e-028   
     length 5.22771   
     axis 180 -30 -90   XYZ
    dof rx ry rz
    limits (-60.0 90.0)
           (-90.0 90.0)
           (-90.0 90.0)
  end
  begin
     id 19
     name lradius
     direction 1 -4.4896e-011 4.25109e-027   
     length 3.45251   
     axis 180 -30 -90   XYZ
    dof rx
    limits (-10.0 170.0)
  end
  begin
     id 20
     name lwrist
     direction 1 -4.48971e-011 1.15382e-027   
     length 1.72626   
     axis -5.52449e-016 90 90   XYZ
    dof ry
    limits (-180.0 0.0)
 end
  begin
     id 21 
     name lhand
     direction 1 -4.49034e-011 2.30765e-027   
     length 0.552119   
     axis -1.47248e-015 90 90   XYZ
    dof rx rz
    limits (-90.0 90.0)
           (-45.0 45.0)
  end
  begin
     id 22 
     name lfingers
     direction 1 -4.48951e-011 4.61529e-027   
     length 0.445133   
     axis -2.94495e-015 90 90   XYZ
    dof rx
    limits (0.0 90.0)
  end
  begin
     id 23
     name lthumb
     direction 0.707107 -6.34991e-011 0.707107   
     length 0.639124   
     axis -90 45 2.85299e-015   XYZ
    dof rx rz
    limits (-45.0 45.0)
           (-45.0 45.0)
  end
  begin
     id 24 
     name rclavicle
     direction -0.97424 0.222511 -0.0366699   
     length 3.73439  
     axis 0 0 0   XYZ 
    dof ry rz
    limits (-10.0 20.0)
           (-20.0 0.0)
  end
  begin
     id 25 
     name rhumerus
     direction -1 -4.48956e-011 -4.97258e-028  
     length 5.2398   
     axis 180 30 90   XYZ
    dof rx ry rz
    limits (-90.0 60.0)
           (-90.0 90.0)
           (-90.0 90.0)
  end
  begin
     id 26 
     name rradius
     direction -1 -4.4897e-011 -1.72611e-027   
     length 3.48042   
     axis 180 30 90   XYZ
    dof rx
    limits (-10.0 170.0)
  end
  begin
     id 27 
     name rwrist
     direction -1 -4.48976e-011 1.15382e-027   
     length 1.74021   
     axis -5.52449e-016 -90 -90   XYZ
    dof ry
    limits (-180.0 0.0)
  end
  begin
     id 28
     name rhand
     direction -1 -4.48963e-011 2.30765e-027   
     length 0.618713   
     axis -1.47248e-015 -90 -90   XYZ
    dof rx rz
    limits (-90.0 90.0)
           (-45.0 45.0)
  end
  begin
     id 29
     name rfingers
     direction -1 -4.4888e-011 4.61529e-027   
     length 0.498823   
     axis -2.94495e-015 -90 -90   XYZ
    dof rx
    limits (0.0 90.0)
  end
  begin
     id 30
     name rthumb
     direction -0.707107 -6.34968e-011 0.707107   
     length 0.716213   
     axis -90 -45 -2.85299e-015   XYZ
    dof rx rz
    limits (-45.0 45.0)
           (-45.0 45.0)
  end
:hierarchy
  begin
    root lhipjoint rhipjoint lowerback
    lhipjoint lfemur
    lfemur ltibia
    ltibia lfoot
    lfoot ltoes
    rhipjoint rfemur
    rfemur rtibia
    rtibia rfoot
    rfoot rtoes
    lowerback upperback
    upperback thorax
    thorax lowerneck lclavicle rclavicle
    lowerneck upperneck
    upperneck head
    lclavicle lhumerus
    lhumerus lradius
    lradius lwrist
    lwrist lhand lthumb
    lhand lfingers
    rclavicle rhumerus
    rhumerus rradius
    rradius rwrist
    rwrist rhand rthumb
    rhand rfingers
  end

#!OML:ASF G:\JayActor3\Patient Classification 1\Patient 1\Session 5\male.ASF
:FULLY-SPECIFIED
:DEGREES
1
root 46.7779 16.6575 -4.44606 -48.4274 88.8767 -83.4769
lowerback 22.4986 -1.20318 0.855624
upperback 5.6885 -0.94015 0.587736
thorax -6.32635 -0.307643 0.386445
lowerneck 4.615 -0.111665 1.91723
upperneck -23.4869 0.957027 1.42343
head -8.00309 0.422648 0.0309662
rclavicle 8.74653e-015 -8.15017e-015
rhumerus -21.5917 9.2501 -89.024
rradius 41.6471
rwrist -7.16435
rhand -21.0866 -7.17669
rfingers 7.12502
rthumb 5.29069 -37.0906
lclavicle 8.74653e-015 -8.15017e-015
lhumerus -25.5186 -10.0691 88.129
lradius 40.96
lwrist 24.9085
lhand -20.5836 9.18096
lfingers 7.12502
lthumb 5.77635 39.0822
rfemur -56.6382 6.89762 14.6843
rtibia 34.6655
rfoot -13.4793 -15.6834
rtoes 10.1025
lfemur -46.2696 6.06523 -23.0895
ltibia 15.682
lfoot -2.85405 1.79042
ltoes -8.70352
2
root 46.7714 16.6544 -4.44908 -49.7714 88.8565 -84.9887
lowerback 22.3267 -1.20675 0.955525
upperback 5.65724 -0.930515 0.580876
thorax -6.27368 -0.306135 0.317414
lowerneck 4.5337 -0.0885191 1.75388
upperneck -23.3867 0.992915 1.55764
head -7.95553 0.44257 0.100696
rclavicle -6.55989e-015 -1.03368e-014
rhumerus -21.64 9.20323 -89.0389
rradius 41.7246
rwrist -7.17698
rhand -21.1164 -7.17356
rfingers 7.12502
rthumb 5.26198 -37.0882
lclavicle -6.55989e-015 -1.03368e-014
lhumerus -25.4483 -10.0116 88.0635
lradius 40.978
lwrist 24.7286
lhand -20.6705 9.11845
lfingers 7.12502
lthumb 5.69252 39.022
rfemur -56.8571 6.80925 14.7295
rtibia 34.681
rfoot -13.3959 -15.6544
rtoes 9.87429
lfemur -46.5234 5.97743 -23.0373
ltibia 15.7723
lfoot -2.84868 1.86668
ltoes -8.6974
3
root 46.7636 16.654 -4.45168 -50.3665 88.8495 -85.7487
lowerback 22.1919 -1.21524 0.9969
upperback 5.62203 -0.93866 0.58329
thorax -6.2432 -0.3124 0.297199
lowerneck 4.49445 -0.0915706 1.78531
upperneck -23.3548 0.985806 1.53751
head -7.93756 0.438626 0.0894498
rclavicle 1.03368e-014 -1.11319e-014
rhumerus -21.6784 9.27841 -89.0537
rradius 41.7945
rwrist -7.26083
rhand -21.138 -7.1954
rfingers 7.12502
rthumb 5.24111 -37.1106
lclavicle 1.03368e-014 -1.11319e-014
lhumerus -25.395 -9.86516 87.9953
lradius 41.0156
lwrist 24.4827
lhand -20.6722 9.17901
lfingers 7.12502
lthumb 5.69089 39.0826
rfemur -57.09 6.94119 14.5805
rtibia 34.705
rfoot -13.4527 -15.8531
rtoes 9.88222
lfemur -46.7831 5.93284 -23.034
ltibia 15.8468
lfoot -2.83165 1.88211
ltoes -8.61122
4
root 46.7554 16.6495 -4.45379 -49.2864 88.8753 -84.837
lowerback 22.0668 -1.20524 1.00112
upperback 5.59458 -0.931534 0.573167
thorax -6.20866 -0.31072 0.28058
lowerneck 4.56706 -0.111067 1.85544
upperneck -23.4457 0.958777 1.47405
head -7.98085 0.424873 0.058294
rclavicle -2.06736e-014 -7.25564e-015
rhumerus -21.7033 9.25144 -89.0486
rradius 41.8809
rwrist -7.29387
rhand -21.0917 -7.2242
rfingers 7.12502
rthumb 5.28577 -37.1383
lclavicle -2.06736e-014 -7.25564e-015
lhumerus -25.3373 -9.7709 87.9375
lradius 41.1139
lwrist 24.2113
lhand -20.7095 9.12442
lfingers 7.12502
lthumb 5.65486 39.029
rfemur -57.3339 6.88271 14.5357
rtibia 34.7366
rfoot -13.3968 -15.8439
rtoes 9.81018
lfemur -47.0428 5.82099 -23.0285
ltibia 15.9287
lfoot -2.80409 2.00593
ltoes -8.64375
5
root 46.7475 16.6463 -4.45601 -49.2217 88.882 -84.9408
lowerback 21.9386 -1.20397 1.03013
upperback 5.56542 -0.929873 0.569144
thorax -6.17471 -0.311936 0.257866
lowerneck 4.57915 -0.110874 1.86462
upperneck -23.4754 0.959202 1.45996
head -7.99297 0.425767 0.0518775
rclavicle 7.55382e-015 -3.74709e-014
rhumerus -21.7304 9.25424 -89.0526
rradius 41.956
rwrist -7.3337
rhand -21.0911 -7.23411
rfingers 7.12502
rthumb 5.28643 -37.1482
lclavicle 7.55382e-015 -3.74709e-014
lhumerus -25.2819 -9.66554 87.8751
lradius 41.194
lwrist 23.9808
lhand -20.7556 9.11061
lfingers 7.12502
lthumb 5.6103 39.0163
rfemur -57.5729 6.86776 14.4841
rtibia 34.7652
rfoot -13.3673 -15.886
rtoes 9.74585
lfemur -47.3002 5.73722 -23.015
ltibia 16.0042
lfoot -2.78235 2.08686
ltoes -8.62912
6
root 46.7395 16.643 -4.458 -49.1258 88.8882 -85.017
lowerback 21.814 -1.20153 1.05548
upperback 5.53771 -0.927275 0.566228
thorax -6.14083 -0.312587 0.23823
lowerneck 4.59552 -0.10809 1.86939
upperneck -23.517 0.963251 1.44431
head -8.00984 0.429032 0.0453342
rclavicle -3.04141e-014 5.26779e-015
rhumerus -21.753 9.25408 -89.0547
rradius 42.0286
rwrist -7.36812
rhand -21.0934 -7.23939
rfingers 7.12502
rthumb 5.28414 -37.1535
lclavicle -3.04141e-014 5.26779e-015
lhumerus -25.2298 -9.56752 87.8151
lradius 41.286
lwrist 23.773
lhand -20.797 9.094
lfingers 7.12502
lthumb 5.57035 39.0008
rfemur -57.8222 6.84466 14.4402
rtibia 34.8049
rfoot -13.335 -15.9198
rtoes 9.6838
lfemur -47.5709 5.6568 -23.0026
ltibia 16.0958
lfoot -2.76834 2.16935
ltoes -8.61041
7
root 46.7315 16.6395 -4.4598 -49.1309 88.8928 -85.2022
lowerback 21.6852 -1.1984 1.08352
upperback 5.51 -0.923356 0.563405
thorax -6.10467 -0.312643 0.216768
lowerneck 4.61512 -0.105128 1.87234
upperneck -23.564 0.968005 1.42997
head -8.02912 0.432698 0.0394347
rclavicle -2.82274e-014 -2.23633e-014
rhumerus -21.7729 9.24739 -89.0562
rradius 42.0958
rwrist -7.39572
rhand -21.1014 -7.24089
rfingers 7.12502
rthumb 5.27647 -37.1552
lclavicle -2.82274e-014 -2.23633e-014
lhumerus -25.1807 -9.48283 87.7566
lradius 41.3844
lwrist 23.611
lhand -20.8506 9.06668
lfingers 7.12502
lthumb 5.51862 38.9748
rfemur -58.0793 6.80521 14.4116
rtibia 34.8421
rfoot -13.2892 -15.9413
rtoes 9.61158
lfemur -47.8524 5.57872 -22.99
ltibia 16.1907
lfoot -2.75571 2.25127
ltoes -8.59459
8
root 46.7237 16.6361 -4.46152 -49.3552 88.8927 -85.6151
lowerback 21.5513 -1.19527 1.11972
upperback 5.48081 -0.918006 0.560493
thorax -6.06757 -0.312149 0.190159
lowerneck 4.6244 -0.0983371 1.86171
upperneck -23.5992 0.978052 1.42585
head -8.04263 0.439277 0.0388494
rclavicle -1.35174e-014 1.41137e-014
rhumerus -21.7938 9.23644 -89.0595
rradius 42.1578
rwrist -7.41982
rhand -21.1137 -7.23905
rfingers 7.12502
rthumb 5.26458 -37.1537
lclavicle -1.35174e-014 1.41137e-014
lhumerus -25.1362 -9.41505 87.7003
lradius 41.4818
lwrist 23.4999
lhand -20.9022 9.03868
lfingers 7.12502
lthumb 5.46878 38.9481
rfemur -58.348 6.76033 14.3938
rtibia 34.8848
rfoot -13.2411 -15.9607
rtoes 9.52937
lfemur -48.1487 5.50892 -22.9774
ltibia 16.2943
lfoot -2.74807 2.32374
ltoes -8.57922
9
root 46.7148 16.6317 -4.4634 -50.1678 88.9004 -86.6753
lowerback 21.3551 -1.19639 1.16793
upperback 5.43914 -0.918511 0.556159
thorax -6.01184 -0.315282 0.156043
lowerneck 4.63115 -0.0945266 1.86099
upperneck -23.63 0.984213 1.41901
head -8.0542 0.443354 0.0360201
rclavicle 2.78299e-014 9.64106e-015
rhumerus -21.8174 9.21904 -89.0653
rradius 42.2172
rwrist -7.43926
rhand -21.1202 -7.24177
rfingers 7.12502
rthumb 5.25833 -37.1565
lclavicle 2.78299e-014 9.64106e-015
lhumerus -25.0947 -9.36718 87.6452
lradius 41.5766
lwrist 23.4485
lhand -20.9417 9.00454
lfingers 7.12502
lthumb 5.43066 38.915
rfemur -58.6917 6.68248 14.3783
rtibia 34.9383
rfoot -13.1802 -15.9734
rtoes 9.44236
lfemur -48.5246 5.43095 -22.9796
ltibia 16.4089
lfoot -2.73101 2.38218
ltoes -8.57278
10
root 46.7049 16.6263 -4.46546 -51.633 88.9122 -88.445
lowerback 21.0993 -1.20141 1.23034
upperback 5.38487 -0.923935 0.551195
thorax -5.93876 -0.321576 0.113793
lowerneck 4.63056 -0.0938085 1.87167
upperneck -23.6507 0.985798 1.40804
head -8.06099 0.444617 0.0303158
rclavicle 1.11319e-014 -8.74653e-015
rhumerus -21.842 9.19943 -89.0733
rradius 42.2713
rwrist -7.45932
rhand -21.1274 -7.25325
rfingers 7.12502
rthumb 5.25133 -37.1682
lclavicle 1.11319e-014 -8.74653e-015
lhumerus -25.0537 -9.33712 87.5901
lradius 41.6647
lwrist 23.4564
lhand -20.9837 8.95781
lfingers 7.12502
lthumb 5.39005 38.8693
rfemur -59.1087 6.57842 14.3652
rtibia 35.0046
rfoot -13.1131 -15.9833
rtoes 9.33757
lfemur -48.9776 5.3436 -22.9897
ltibia 16.5347
lfoot -2.70591 2.42891
ltoes -8.56537
11
root 46.6939 16.6198 -4.46776 -53.8724 88.9301 -91.0433
lowerback 20.7892 -1.21067 1.30719
upperback 5.31732 -0.934674 0.545708
thorax -5.85173 -0.331179 0.063528
lowerneck 4.61031 -0.093349 1.86885
upperneck -23.6523 0.986865 1.40971
head -8.05787 0.445815 0.0312507
rclavicle 1.5704e-014 2.39536e-014
rhumerus -21.87 9.17428 -89.0819
rradius 42.3203
rwrist -7.47878
rhand -21.1383 -7.26767
rfingers 7.12502
rthumb 5.24078 -37.1829
lclavicle 1.5704e-014 2.39536e-014
lhumerus -25.0129 -9.32328 87.5375
lradius 41.7456
lwrist 23.5114
lhand -21.0231 8.91853
lfingers 7.12502
lthumb 5.35201 38.8309
rfemur -59.5969 6.44675 14.3517
rtibia 35.0863
rfoot -13.0423 -15.9899
rtoes 9.23027
lfemur -49.5053 5.24813 -23.0134
ltibia 16.6711
lfoot -2.67113 2.45635
ltoes -8.5731
12
root 46.6819 16.6124 -4.4702 -56.7278 88.9526 -94.3024
lowerback 20.4361 -1.22187 1.39196
upperback 5.23701 -0.948802 0.540127
thorax -5.75577 -0.343009 0.00903205
lowerneck 4.6032 -0.0954742 1.87166
upperneck -23.6631 0.98447 1.40655
head -8.06018 0.445134 0.02986
rclavicle 1.53064e-014 4.25399e-014
rhumerus -21.9023 9.14541 -89.0895
rradius 42.3617
rwrist -7.4971
rhand -21.1498 -7.28728
rfingers 7.12502
rthumb 5.22971 -37.2028
lclavicle 1.53064e-014 4.25399e-014
lhumerus -24.9756 -9.32397 87.4889
lradius 41.8185
lwrist 23.6019
lhand -21.0604 8.87833
lfingers 7.12502
lthumb 5.316 38.7917
rfemur -60.1436 6.29657 14.3334
rtibia 35.1798
rfoot -12.97 -15.997
rtoes 9.12179
lfemur -50.0935 5.14691 -23.0504
ltibia 16.8131
lfoot -2.62666 2.46817
ltoes -8.57655
13
root 46.6694 16.6044 -4.47266 -59.8269 88.9802 -97.8196
lowerback 20.0756 -1.23249 1.4717
upperback 5.15042 -0.964217 0.534264
thorax -5.662 -0.355557 -0.0426929
lowerneck 4.59763 -0.0995132 1.86613
upperneck -23.6731 0.97938 1.40878
head -8.0626 0.443329 0.0319028
rclavicle -1.63003e-014 -3.22031e-014
rhumerus -21.9384 9.11617 -89.0952
rradius 42.3969
rwrist -7.51297
rhand -21.1626 -7.3104
rfingers 7.12502
rthumb 5.21734 -37.2262
lclavicle -1.63003e-014 -3.22031e-014
lhumerus -24.9392 -9.33207 87.4455
lradius 41.8795
lwrist 23.7101
lhand -21.1076 8.84042
lfingers 7.12502
lthumb 5.27046 38.7549
rfemur -60.7114 6.14314 14.3036
rtibia 35.2809
rfoot -12.9025 -16.0089
rtoes 9.01461
lfemur -50.6996 5.04209 -23.0976
ltibia 16.9542
lfoot -2.57743 2.47139
ltoes -8.58127
14
root 46.6569 16.5964 -4.475 -62.9231 89.0085 -101.33
lowerback 19.7259 -1.24098 1.54149
upperback 5.06206 -0.978898 0.528489
thorax -5.57507 -0.367594 -0.0887592
lowerneck 4.59112 -0.104331 1.85652
upperneck -23.6796 0.972787 1.41294
head -8.06362 0.440933 0.0354244
rclavicle 4.19436e-014 2.28602e-014
rhumerus -21.9775 9.08778 -89.1004
rradius 42.4247
rwrist -7.52292
rhand -21.1727 -7.33152
rfingers 7.12502
rthumb 5.20756 -37.2475
lclavicle 4.19436e-014 2.28602e-014
lhumerus -24.9074 -9.34634 87.4077
lradius 41.9277
lwrist 23.8149
lhand -21.1428 8.79867
lfingers 7.12502
lthumb 5.23643 38.714
rfemur -61.2743 5.99481 14.2673
rtibia 35.3831
rfoot -12.8366 -16.0246
rtoes 8.91191
lfemur -51.2963 4.94249 -23.1523
ltibia 17.0872
lfoot -2.52648 2.46613
ltoes -8.58751
